<svg width="44" height="44" viewBox="0 0 44 44" fill="none" xmlns="http://www.w3.org/2000/svg">
<path d="M25.9659 1.38184C35.1157 1.38184 41.7237 7.34242 42.8302 15.5908H31.7843L31.2325 18.7949H39.8536C40.7319 18.7949 41.5066 18.4733 42.174 17.8262C42.4888 17.5286 42.7492 17.1969 42.9601 16.8271C43.067 18.4795 42.963 20.2099 42.6193 21.998C40.4293 33.3869 29.4183 42.6182 18.0323 42.6182C6.64364 42.618 -0.809881 33.3868 1.38293 21.998C1.75564 20.051 2.39396 18.1672 3.24329 16.3818C3.28951 17.0203 3.51461 17.5639 3.91907 18.0117C4.37545 18.5143 4.97358 18.7655 5.71008 18.7656H10.8419L11.0382 18.7598C12.8033 18.7598 14.121 19.7479 13.6993 21.9434C13.2775 24.1391 11.4714 25.1992 9.70618 25.1992H7.16418L8.48157 18.9248L8.4552 18.9277C7.5626 19.0202 6.75658 19.3317 6.04016 19.8574C5.27455 20.4324 4.80331 21.1495 4.62708 21.9932L3.3009 28.4062L6.4845 28.4092V28.4062L8.93176 28.4092H9.41418C12.9331 28.4092 16.3743 25.6643 17.0792 21.998C17.7868 18.332 15.3109 15.5908 11.7921 15.5908H3.63293C7.91746 7.34247 16.8162 1.3819 25.9659 1.38184ZM25.5382 15.3594C22.0195 15.3595 18.5929 18.332 17.8878 21.998C17.1829 25.6672 19.4627 28.6406 22.9816 28.6406C26.5005 28.6406 29.927 25.6643 30.632 21.998C31.3366 18.3291 29.057 15.3565 25.5382 15.3594ZM37.8575 18.9854C36.9679 19.0778 36.1618 19.3894 35.4454 19.915C34.6798 20.49 34.2086 21.2072 34.0323 22.0508L32.7179 28.4033L35.9161 28.4062L37.8839 18.9824L37.8575 18.9854ZM25.0275 18.1309C26.7924 18.1311 27.7684 19.8007 27.3468 21.999C26.9221 24.1975 25.2584 25.868 23.4933 25.8682C21.728 25.8682 20.7483 24.1976 21.173 21.999C21.5978 19.8006 23.2623 18.1309 25.0275 18.1309Z" fill="#007BC7"/>
</svg>
