<svg width="16" height="16" viewBox="0 0 16 16" fill="none" xmlns="http://www.w3.org/2000/svg">
<path d="M1.81543 4.38379C2.27854 4.38385 2.63943 4.49533 2.89844 4.71777C3.16051 4.94329 3.36542 5.31316 3.51172 5.82812L2.62402 6.19922C2.58441 6.01333 2.54094 5.85737 2.49219 5.73242C2.44349 5.60459 2.38985 5.50563 2.33203 5.43555C2.21622 5.2923 2.04216 5.22072 1.81055 5.2207C1.49356 5.2207 1.27696 5.41553 1.16113 5.80566C1.04532 6.2141 0.987305 6.94727 0.987305 8.00488C0.987309 9.07465 1.04715 9.79882 1.16602 10.1768C1.28491 10.5545 1.50883 10.7432 1.83789 10.7432C2.13964 10.7432 2.35171 10.609 2.47363 10.3408C2.59853 10.0543 2.66113 9.59375 2.66113 8.95996V8.62695H1.83301V7.82227H3.56152V8.09668C3.5615 9.47105 3.44096 10.3993 3.2002 10.8809C2.96241 11.3744 2.51735 11.6211 1.86523 11.6211C1.1917 11.6211 0.711296 11.3465 0.424805 10.7979C0.141502 10.2492 2.03782e-06 9.32724 0 8.03223C0 6.55092 0.155905 5.56494 0.466797 5.07422C0.759404 4.61408 1.20896 4.38379 1.81543 4.38379ZM10.4863 4.37891C10.8247 4.37891 11.1482 4.45955 11.4561 4.62109V5.5498C11.1665 5.34254 10.9055 5.23828 10.6738 5.23828C10.4241 5.23836 10.2199 5.32721 10.0615 5.50391C9.90313 5.67153 9.82422 5.89546 9.82422 6.17578C9.82423 6.42262 9.88041 6.63477 9.99316 6.81152C10.0511 6.90594 10.1455 7.02764 10.2764 7.17676C10.4105 7.32611 10.5827 7.50649 10.793 7.7168C11.18 8.10992 11.4438 8.44986 11.584 8.73633C11.7241 9.01364 11.7939 9.35367 11.7939 9.75586C11.7939 10.3012 11.6407 10.751 11.333 11.1045C11.0252 11.4489 10.63 11.6211 10.1484 11.6211C9.74306 11.6211 9.39686 11.5096 9.11035 11.2871V10.3457C9.44865 10.5926 9.75683 10.7158 10.0342 10.7158C10.2932 10.7158 10.4963 10.6306 10.6426 10.46C10.7888 10.2863 10.8613 10.0513 10.8613 9.75586C10.8613 9.49991 10.8051 9.2696 10.6924 9.06543C10.6345 8.96791 10.5538 8.85639 10.4502 8.73145C10.3466 8.60349 10.2169 8.462 10.0615 8.30664C9.82073 8.0689 9.62138 7.85768 9.46289 7.6748C9.30445 7.49198 9.18653 7.33244 9.11035 7.19531C8.96411 6.92719 8.89165 6.5889 8.8916 6.18066C8.8916 5.62898 9.03478 5.19125 9.32129 4.86816C9.61075 4.54223 9.99892 4.37899 10.4863 4.37891ZM5.79688 4.47461C6.15338 4.47463 6.45348 4.51452 6.69727 4.59375C6.92271 4.66992 7.12406 4.80506 7.30078 5C7.56595 5.2926 7.75539 5.67417 7.86816 6.14355C7.98089 6.59769 8.03711 7.24854 8.03711 8.0957C8.0371 8.87264 7.97449 9.50644 7.84961 9.99707C7.72769 10.4665 7.52651 10.8254 7.24609 11.0723C6.90169 11.38 6.28434 11.5332 5.39453 11.5332H4.62598V4.47461H5.79688ZM14.542 7.29102C14.8163 8.08648 15.0583 8.93577 15.2686 9.83789C15.1924 9.29242 15.1362 8.79833 15.0996 8.35645C15.063 7.91462 15.0449 7.49844 15.0449 7.1084V4.47461H16V11.5332H15.1084L14.043 8.35645C13.9454 8.06079 13.853 7.75718 13.7646 7.44629C13.6793 7.1354 13.5995 6.80914 13.5264 6.46777C13.5203 6.42515 13.5094 6.37335 13.4941 6.3125C13.482 6.25166 13.4675 6.18158 13.4492 6.10254C13.4583 6.18148 13.4656 6.24986 13.4717 6.30762C13.4778 6.36226 13.4823 6.40969 13.4854 6.44922L13.5361 7.16797L13.5859 8.04102C13.589 8.08966 13.5908 8.1489 13.5908 8.21875C13.5939 8.28885 13.5947 8.36864 13.5947 8.45703L13.6455 11.5332H12.708V4.47461H13.5947L14.542 7.29102ZM5.57715 10.7012C6.15624 10.7012 6.5432 10.5263 6.73828 10.1758C6.93945 9.82527 7.04004 9.14376 7.04004 8.13184C7.04002 7.04407 6.94389 6.29613 6.75195 5.8877C6.55996 5.47933 6.20822 5.27448 5.69629 5.27441H5.57715V10.7012Z" fill="#002C6C"/>
</svg>
