<svg width="44" height="34" viewBox="0 0 44 34" fill="none" xmlns="http://www.w3.org/2000/svg">
<path fill-rule="evenodd" clip-rule="evenodd" d="M17.9083 0C17.7613 0.547024 17.7066 1.08427 17.5734 1.61035L15.382 10.2803C15.2039 10.9745 14.9867 11.6579 14.8507 12.3672C14.7916 12.6753 14.6027 13.0631 14.5587 13.3672C14.2605 15.4309 13.4056 17.3922 13.254 19.4785C13.0759 21.7252 13.9348 24.1816 16.297 24.8496C16.7145 24.9677 17.157 25.0028 17.5841 25.085C19.9816 25.5461 22.6393 25.3001 25.0196 24.8262C28.011 24.2306 31.0598 23.0402 33.839 21.7969C35.834 20.9108 37.7827 19.924 39.6778 18.8408C40.1399 18.5716 40.5892 18.2949 41.0587 18.0352C42.1078 17.4546 42.9605 16.6066 44.0001 15.9912C43.8488 16.3428 43.7449 16.6932 43.5978 17.041C43.1344 18.1253 42.5314 19.1446 41.8048 20.0732C41.6562 20.2596 41.4407 20.4571 41.2804 20.6387C40.5776 21.4347 39.7328 22.1001 38.9122 22.7754C36.1233 25.0931 33.1223 27.1428 29.9493 28.8984C27.2325 30.4066 24.4891 31.6078 21.4747 32.3906C19.5133 32.9001 17.6842 33.0945 15.6808 33.2832C15.5832 33.2923 15.487 33.3008 15.3907 33.3203H15.0568C14.0095 33.1215 12.8679 33.1194 11.8185 32.9551C8.17542 32.3838 4.68237 30.6753 2.35754 27.7588C1.17981 26.2813 0.0256399 23.5183 0.0391767 21.6426L0.0176923 21.457C-0.0218993 20.9606 0.0126895 20.0536 0.0460126 19.6758L0.0421064 19.5273C0.0495781 18.7301 0.459312 17.1323 0.63488 16.4111L1.24914 13.8975L3.44152 4.99121L4.25109 1.62402C4.39475 1.03604 4.55956 0.624601 4.66418 0H17.9083ZM42.3009 0C42.2762 0.321928 41.993 1.4762 41.9103 1.83203C41.5367 3.3976 41.1468 4.96 40.7413 6.51758L38.9689 13.6387C38.8488 14.1048 38.5287 15.7344 38.2521 16.125C38.1797 16.226 37.0537 16.83 36.8478 16.9453C33.2945 18.9022 29.4525 20.2809 25.4659 21.0303C25.0311 21.116 24.4474 21.2513 24.0011 21.2793C23.9153 21.2847 23.8939 21.2517 23.8517 21.2012C23.8084 20.895 24.9445 16.7436 25.1066 16.1016L28.0353 4.18359C28.3539 2.83482 28.8147 1.34989 29.0616 0H42.3009Z" fill="#C41F3E"/>
</svg>
