<svg width="35" height="24" viewBox="0 0 35 24" fill="none" xmlns="http://www.w3.org/2000/svg">
<path d="M30.9988 14.3578C33.2338 14.3174 34.5621 14.3578 34.5621 14.3578V23.9434H0.366576V19.1828C11.5468 15.2339 24.6432 14.4792 30.8868 14.3578H30.9988Z" fill="#0C501C"/>
<path d="M0.361695 18.0071C13.0778 11.2377 34.511 11.7623 34.5572 11.7634V13.2107C13.8414 12.6775 0.361695 18.0071 0.361695 18.0071Z" fill="#0C501C"/>
<path d="M0.361695 14.1249C0.361695 14.1249 5.54144 13.8867 8.6644 14.2009C8.6644 14.2009 1.12339 15.1151 0.361695 15.4959V14.1249Z" fill="#0C501C"/>
<path d="M0.361695 11.7634C0.361695 11.7634 7.59794 11.8397 12.0896 13.5154C12.0896 13.5154 2.8753 12.7536 0.361695 13.1344V11.7634Z" fill="#0C501C"/>
<path d="M2.83265 0.309393C2.70134 0.364804 2.58861 0.457048 2.50838 0.574853C2.42821 0.692631 2.38376 0.831071 2.3803 0.973507V7.1623C2.38031 8.19534 2.73497 9.65671 4.65345 9.65674C6.41011 9.65674 7.03375 8.50467 7.03375 7.0384L7.01004 0.973507C7.01462 0.836319 6.97942 0.700767 6.90893 0.582989C6.83844 0.465224 6.73561 0.370173 6.61255 0.309393H8.33106C8.20932 0.371187 8.10783 0.46668 8.03864 0.584383C7.96948 0.70207 7.93555 0.837103 7.94078 0.973507L7.89545 7.01004C7.89541 9.51877 6.40543 10.4924 4.39891 10.4924C2.67082 10.4924 0.476071 9.72588 0.476061 7.11232V0.973507C0.469143 0.82871 0.420581 0.688952 0.336125 0.571133C0.251667 0.453314 0.134908 0.362442 0 0.309393H2.83265Z" fill="#0D2A80"/>
<path d="M12.2776 0.147607C13.0537 0.144236 13.8188 0.331418 14.5057 0.692706L14.5794 2.87775C14.3722 2.09465 13.532 0.914051 12.1158 0.914C10.9924 0.914 10.5496 1.69714 10.5496 2.34218C10.5496 3.24194 11.1851 3.57997 12.5728 4.21551C13.9605 4.85104 15.3767 5.34155 15.3767 7.39335C15.3766 9.23803 13.7534 10.4924 11.9373 10.4924C10.9501 10.4804 9.97955 10.2358 9.10466 9.77831L9.03098 7.28387C9.31188 8.33119 10.1973 9.7188 11.7325 9.7188C13.1916 9.7188 13.6367 8.67159 13.6368 7.94798C13.6368 6.5198 12.3538 6.33871 11.0184 5.6151C9.68311 4.89149 9.06887 4.06558 9.06887 2.94446C9.05937 0.952182 10.9351 0.147607 12.2776 0.147607Z" fill="#0D2A80"/>
<path fill-rule="evenodd" clip-rule="evenodd" d="M30.0704 0C30.0743 0.00894038 33.9981 9.06207 34.2622 9.62117C34.3301 9.78414 34.4305 9.93168 34.5574 10.0545C34.6843 10.1772 34.8349 10.2727 35 10.3353L31.8412 10.3448C32.2268 10.1377 32.3007 9.933 32.1959 9.6307C32.1531 9.48305 31.7676 8.58323 31.3559 7.58118H27.7401C27.43 8.24492 27.1543 8.9244 26.9142 9.61652C26.7809 9.97115 26.8547 10.1782 27.2522 10.3543H25.217C25.5119 10.188 25.7523 9.93999 25.9095 9.64023C26.1833 9.06182 30.0704 0 30.0704 0ZM29.5158 3.18714C29.5158 3.18714 28.5112 5.69609 28.0399 6.80293H31.0153C30.3226 5.16528 29.5158 3.18714 29.5158 3.18714Z" fill="#0D2A80"/>
<path fill-rule="evenodd" clip-rule="evenodd" d="M20.2754 0.309393C25.1312 0.309393 26.1048 3.74892 26.1048 5.17949C26.1048 7.74783 24.1268 10.3448 20.1422 10.3448H16.3504C16.4693 10.2803 16.568 10.184 16.6356 10.0668C16.7033 9.94957 16.7371 9.81595 16.7335 9.68068V0.973507C16.7394 0.837828 16.7065 0.703172 16.6387 0.585545C16.5708 0.467973 16.4708 0.372179 16.3504 0.309393H20.2754ZM19.966 1.04719C19.6113 1.04719 18.8282 1.0474 18.6068 1.07834V9.5784H19.797C23.1294 9.5784 24.0625 7.33366 24.0625 5.17949C24.0529 3.40854 23.0199 1.04719 19.966 1.04719Z" fill="#0D2A80"/>
</svg>
